<?xml version="1.0" encoding="UTF-8" standalone="no"?>
<svg width="125" height="125" viewBox="0 0 125 125"
     xmlns="http://www.w3.org/2000/svg"
     style="fill-rule:evenodd;clip-rule:evenodd;stroke-linejoin:round;stroke-miterlimit:2;">

  <!-- Shift de 8 px a la derecha y 16,925 px hacia abajo para encuadrar el logotipo -->
  <g transform="translate(8,16.925)">
    <path d="M67,11L67,19C70.416,19.054 73.783,19.828 76.88,21.27C80.375,23.103 83.474,25.607 86,28.64L80.86,33.56C76.94,28.34 72.163,25.73 66.53,25.73C61.731,25.617 57.099,27.531 53.78,31C50.364,34.398 48.502,39.063 48.64,43.88C48.677,53.487 56.399,61.458 66,61.8C69.519,61.813 72.924,60.539 75.57,58.22C78.247,56.092 79.957,52.972 80.31,49.57L68.36,49.57V42.79H88.11V44.37C88.162,47.595 87.734,50.81 86.84,53.91C85.956,56.565 84.532,59.01 82.66,61.09C78.723,65.665 73.034,68.375 67,68.55V76.73C84.194,75.568 97.718,61.098 97.718,43.865C97.718,26.632 84.194,12.162 67,11Z"/>
    <path d="M30.49,68.79V67.29C30.49,60.51 24.68,59.86 24.43,59.84L23.08,59.7V26.81L24.47,26.71C24.99,26.66 29.6,26.07 29.6,20.02V18.52H63.33V11H23C22.973,16.89 18.11,21.717 12.22,21.7V28.9C12.558,28.832 12.73,28.83 12.73,28.83A1.95,1.95 0 0 1 14.68,30.78C14.68,31.85 13.8,32.73 12.73,32.73A2,2 0 0 1 12.22,32.66V42.16C12.557,42.085 12.73,42.08 12.73,42.08A1.96,1.96 0 0 1 14.308,44.035A1.96,1.96 0 0 1 12.73,45.99 2,2 0 0 1 12.22,45.92V55.42C12.557,55.341 12.73,55.34 12.73,55.34A1.96,1.96 0 0 1 14.308,57.295A1.96,1.96 0 0 1 12.73,59.25 2,2 0 0 1 12.22,59.17V66H12.26C18.144,66 22.989,70.836 23,76.72H63.36V68.79H30.49Z"
          fill="#19526D"/>
    <path d="M55.13,21.52H32.51C32.287,25.261 29.686,28.464 26.07,29.45V57.09C30.134,58.088 33.111,61.616 33.41,65.79H54.41C52.233,64.605 50.244,63.102 48.51,61.33C43.845,56.732 41.26,50.419 41.36,43.87C41.241,37.236 43.879,30.841 48.64,26.22C50.536,24.314 52.727,22.726 55.13,21.52Z"
          fill="#19526D"/>
  </g>
</svg>
